<?xml version="1.0" encoding="iso-8859-1"?>
<!-- Generator: Adobe Illustrator 19.0.0, SVG Export Plug-In . SVG Version: 6.00 Build 0)  -->
<svg version="1.1" id="Capa_1" xmlns="http://www.w3.org/2000/svg" xmlns:xlink="http://www.w3.org/1999/xlink" x="0px" y="0px"
	 viewBox="0 0 463 463" style="enable-background:new 0 0 463 463;" xml:space="preserve">
<g>
	<path d="M339.488,67.671c-20.544-3.669-41.64,0.189-59.86,10.857c-0.413-0.274-0.821-0.555-1.239-0.822
		c-7.581-4.842-15.815-8.439-24.417-10.735c5.236-22.385,2.007-44.065-0.62-55.697C251.851,4.637,246.2,0,239.609,0h-26.426
		c-5.212,0-9.998,2.967-12.49,7.743c-2.627,5.034-2.264,11.021,0.946,15.623c6.462,9.268,14.048,23.757,15.394,41.824
		c-12.199,2.021-23.701,6.576-33.822,13.242c-18.184-10.598-39.216-14.421-59.698-10.762c-50.88,9.085-85.531,61.298-77.243,116.392
		c20.111,133.664,59.453,235.962,102.674,266.974c9.187,6.592,18.406,9.91,27.493,9.91c2.199,0,4.392-0.195,6.573-0.584
		c7.53-1.345,14.521-4.982,20.842-10.813c8.553,8.942,17.74,13.45,27.5,13.45c9.813,0,19.045-4.56,27.636-13.597
		c6.362,5.917,13.408,9.603,21.003,10.959c2.183,0.39,4.373,0.584,6.573,0.584c9.086,0,18.307-3.318,27.492-9.909
		c43.221-31.011,82.563-133.31,102.674-266.974C425.02,128.969,390.369,76.756,339.488,67.671z M238.814,15
		c1.927,8.699,5.285,29.069,0.355,49.36c-2.374-0.211-4.763-0.331-7.162-0.349C230.413,42.738,221.602,25.816,214.076,15H238.814z
		 M401.897,181.83c-19.233,127.835-57.145,228.721-96.584,257.019c-7.996,5.737-15.625,8.002-22.685,6.747
		c-5.042-0.901-9.862-3.628-14.358-8.083c4.884-7.441,9.527-16.493,13.915-27.159c1.576-3.831-0.251-8.214-4.082-9.789
		c-3.831-1.58-8.214,0.252-9.789,4.082C256.813,432.604,243.686,448,231.352,448c-12.329,0-25.451-15.384-36.949-43.318
		c-1.577-3.831-5.963-5.654-9.79-4.081c-3.83,1.576-5.657,5.96-4.081,9.79c4.419,10.737,9.097,19.839,14.019,27.305
		c-4.444,4.35-9.204,7.011-14.178,7.9c-7.056,1.255-14.689-1.01-22.686-6.747c-39.439-28.298-77.351-129.184-96.584-257.019
		c-7.092-47.135,22.088-91.723,65.046-99.394c15.056-2.687,30.482-0.469,44.324,6.215c-8.05,7.79-14.678,17.181-19.336,27.842
		c-1.659,3.796,0.073,8.217,3.869,9.875c0.978,0.428,1.996,0.63,2.999,0.63c2.891,0,5.646-1.681,6.876-4.499
		C176.429,96.075,202.52,79,231.352,79c27.993,0,52.992,15.649,65.241,40.84c1.298,2.669,3.97,4.223,6.751,4.223
		c1.1,0,2.218-0.243,3.273-0.757c3.726-1.812,5.277-6.3,3.466-10.024c-4.467-9.187-10.486-17.473-17.752-24.532
		c13.895-6.758,29.396-9.009,44.52-6.312C379.81,90.107,408.99,134.695,401.897,181.83z"/>
	<path d="M157.404,270.965c4.122-0.412,7.129-4.088,6.717-8.209c-0.521-5.203-1.01-10.546-1.456-15.88
		c-0.346-4.128-3.971-7.201-8.099-6.849c-4.127,0.345-7.194,3.971-6.849,8.099c0.452,5.414,0.949,10.838,1.478,16.122
		c0.387,3.868,3.647,6.755,7.454,6.755C156.898,271.003,157.15,270.99,157.404,270.965z"/>
	<path d="M168.999,302.404c-0.606-4.098-4.418-6.931-8.517-6.321c-4.098,0.605-6.928,4.419-6.321,8.517
		c3.509,23.729,7.86,45.529,12.934,64.797c0.887,3.365,3.924,5.592,7.248,5.592c0.632,0,1.274-0.081,1.915-0.249
		c4.005-1.055,6.397-5.157,5.343-9.163C176.668,346.843,172.428,325.589,168.999,302.404z"/>
	<path d="M311.352,144c-4.143,0-7.5,3.357-7.5,7.5c0,5.296-0.034,10.647-0.101,15.904c-0.053,4.142,3.262,7.542,7.403,7.595
		C311.188,175,311.22,175,311.252,175c4.098,0,7.445-3.295,7.497-7.404c0.068-5.32,0.103-10.736,0.103-16.096
		C318.852,147.357,315.495,144,311.352,144z"/>
	<path d="M310.72,192.005c-4.146-0.142-7.624,3.063-7.787,7.201c-1.319,33.702-4.045,65.757-8.101,95.273
		c-0.563,4.104,2.307,7.887,6.41,8.451c0.346,0.047,0.689,0.07,1.03,0.07c3.688,0,6.904-2.723,7.421-6.48
		c4.121-29.996,6.89-62.54,8.228-96.729C318.083,195.653,314.86,192.167,310.72,192.005z"/>
</g>
<g>
</g>
<g>
</g>
<g>
</g>
<g>
</g>
<g>
</g>
<g>
</g>
<g>
</g>
<g>
</g>
<g>
</g>
<g>
</g>
<g>
</g>
<g>
</g>
<g>
</g>
<g>
</g>
<g>
</g>
</svg>
