<?xml version="1.0" encoding="iso-8859-1"?>
<!-- Uploaded to: SVG Repo, www.svgrepo.com, Generator: SVG Repo Mixer Tools -->
<svg fill="#000000" height="800px" width="800px" version="1.1" id="Layer_1" xmlns="http://www.w3.org/2000/svg" xmlns:xlink="http://www.w3.org/1999/xlink" 
	 viewBox="0 0 512 512" xml:space="preserve">
<g>
	<g>
		<path d="M283.27,207.863c19.589-19.584,19.589-51.462,0-71.057l-19.622-19.627c-6.536-6.536-6.56-17.113,0-23.684l26.235-26.235
			c15.315-15.314,19.099-38.621,9.416-57.993c-4.133-8.287-14.219-11.629-22.468-7.497c-8.276,4.138-11.629,14.197-7.497,22.468
			c3.227,6.461,1.967,14.23-3.135,19.338l-26.235,26.235c-19.643,19.643-19.643,51.425,0,71.057l19.616,19.622
			c6.532,6.532,6.532,17.157,0.006,23.689l-19.622,19.622c-19.643,19.643-19.643,51.425,0,71.057l19.616,19.622
			c6.532,6.532,6.532,17.157,0.006,23.689l-19.622,19.622c-19.643,19.643-19.643,51.425,0,71.057l19.616,19.622
			c6.532,6.532,6.532,17.157,0.006,23.689c-6.542,6.538-6.542,17.147,0,23.684c6.542,6.543,17.142,6.543,23.684,0
			c19.589-19.584,19.589-51.462,0-71.057l-19.622-19.627c-6.536-6.536-6.56-17.113,0-23.684l19.622-19.622
			c19.589-19.584,19.589-51.462,0-71.057l-19.622-19.627c-6.536-6.536-6.56-17.113,0-23.684L283.27,207.863z"/>
	</g>
</g>
<g>
	<g>
		<path d="M82.287,207.864c19.589-19.584,19.589-51.462,0-71.057L62.665,117.18c-6.536-6.536-6.56-17.113,0-23.684l26.234-26.236
			c15.315-15.314,19.099-38.621,9.416-57.993C94.183,0.981,84.102-2.361,75.849,1.772C67.573,5.91,64.22,15.97,68.352,24.24
			c3.227,6.461,1.967,14.23-3.135,19.338L38.982,69.813c-19.643,19.643-19.643,51.425,0,71.057l19.616,19.622
			c6.532,6.532,6.532,17.157,0.006,23.689l-19.622,19.622c-19.643,19.643-19.643,51.425,0,71.057l19.622,19.622
			c6.542,6.542,17.142,6.542,23.684,0c6.542-6.538,6.542-17.147,0-23.684l-19.622-19.627c-6.536-6.536-6.56-17.113,0-23.684
			L82.287,207.864z"/>
	</g>
</g>
<g>
	<g>
		<path d="M484.26,207.863c19.584-19.584,19.584-51.462,0-71.057l-19.627-19.627c-6.536-6.536-6.56-17.113,0-23.684l26.235-26.235
			c15.32-15.319,19.103-38.632,9.399-58.004c-4.132-8.265-14.197-11.607-22.468-7.48c-8.271,4.144-11.624,14.203-7.48,22.473
			c3.232,6.456,1.967,14.22-3.135,19.328l-26.235,26.235c-19.643,19.643-19.643,51.425,0,71.057l19.616,19.622
			c6.532,6.532,6.532,17.157,0.006,23.689l-19.622,19.622c-19.643,19.643-19.643,51.425,0,71.057l19.622,19.622
			c6.537,6.538,17.13,6.546,23.689-0.001c6.532-6.538,6.532-17.147,0-23.684l-19.627-19.627c-6.536-6.536-6.56-17.113,0-23.684
			L484.26,207.863z"/>
	</g>
</g>
<g>
	<g>
		<circle cx="137.116" cy="200.984" r="16.749"/>
	</g>
</g>
<g>
	<g>
		<circle cx="338.1" cy="267.978" r="16.749"/>
	</g>
</g>
<g>
	<g>
		<circle cx="170.613" cy="334.973" r="16.749"/>
	</g>
</g>
<g>
	<g>
		<circle cx="371.597" cy="133.989" r="16.749"/>
	</g>
</g>
<g>
	<g>
		<circle cx="170.613" cy="66.995" r="16.749"/>
	</g>
</g>
<g>
	<g>
		<path d="M166.513,415.176c-1.973-6.063-7.213-10.485-13.521-11.4l-35.313-5.136l-15.789-31.998
			c-2.824-5.714-8.647-9.333-15.02-9.333s-12.196,3.62-15.02,9.333L56.055,398.64l-35.313,5.136
			c-6.308,0.916-11.547,5.337-13.521,11.4c-1.969,6.063-0.327,12.72,4.242,17.168l25.548,24.905l-6.029,35.171
			c-1.074,6.281,1.505,12.632,6.663,16.378c5.157,3.746,12,4.247,17.637,1.276l31.589-16.601l31.578,16.601
			c5.745,3.012,12.558,2.415,17.641-1.276c5.157-3.746,7.737-10.097,6.663-16.378l-6.029-35.171l25.548-24.905
			C166.841,427.897,168.482,421.239,166.513,415.176z"/>
	</g>
</g>
<g>
	<g>
		<path d="M421.844,368.475c-27.707,0-50.246,22.539-50.246,50.246c0,27.707,22.539,50.246,50.246,50.246
			c27.708,0,50.246-22.539,50.246-50.246C472.09,391.014,449.551,368.475,421.844,368.475z"/>
	</g>
</g>
</svg>