<svg xmlns="http://www.w3.org/2000/svg" viewBox="0 0 122.88 122.88"><defs><style>.cls-1{fill-rule:evenodd;}</style></defs><title>pen</title><path class="cls-1" d="M102.88,2.14L120.74,20a7.32,7.32,0,0,1,0,10.34L48.87,102.21a7.28,7.28,0,0,1-3.22,1.93L4.13,117.67a4.39,4.39,0,0,1-1.25.18,4.3,4.3,0,0,1-2.88-1.1,4.36,4.36,0,0,1-.92-4.13L12.61,71.1a7.26,7.26,0,0,1,1.93-3.22L86.41,2.14a7.31,7.31,0,0,1,10.34,0ZM30.66,95.1l-8.88-8.88-6.89,24.77,15.77-15.89Zm7.28-3.15L24.93,78.94,84.13,19.74l13,13L37.94,91.95Zm56.32-56.32,13-13L96.87,12.27l-13,13,10.39,10.36Z"/></svg>